HIERARCHY
ROOT hip
{
  OFFSET 0 0 0
  CHANNELS 6 Xposition Yposition Zposition Zrotation Yrotation Xrotation
  JOINT abdomen
  {
    OFFSET 0 20.6881 -0.73152
    CHANNELS 3 Zrotation Xrotation Yrotation
    JOINT chest
    {
      OFFSET 0 11.7043 -0.48768
      CHANNELS 3 Zrotation Xrotation Yrotation
      JOINT neck
      {
        OFFSET 0 22.1894 -2.19456
        CHANNELS 3 Zrotation Xrotation Yrotation
        JOINT head
        {
          OFFSET -0.24384 7.07133 1.2192
          CHANNELS 3 Zrotation Xrotation Yrotation
          JOINT leftEye
          {
            OFFSET 4.14528 8.04674 8.04672
            CHANNELS 3 Zrotation Xrotation Yrotation
            End Site
            {
              OFFSET 1 0 0
            }
          }
          JOINT rightEye
          {
            OFFSET -3.6576 8.04674 8.04672
            CHANNELS 3 Zrotation Xrotation Yrotation
            End Site
            {
              OFFSET 1 0 0
            }
          }
        }
      }
      JOINT rCollar
      {
        OFFSET -2.68224 19.2634 -4.8768
        CHANNELS 3 Zrotation Xrotation Yrotation
        JOINT rShldr
        {
          OFFSET -8.77824 -1.95073 1.46304
          CHANNELS 3 Zrotation Xrotation Yrotation
          JOINT rForeArm
          {
            OFFSET -28.1742 -1.7115 0.48768
            CHANNELS 3 Zrotation Xrotation Yrotation
            JOINT rHand
            {
              OFFSET -22.5879 0.773209 7.07136
              CHANNELS 3 Zrotation Xrotation Yrotation
              JOINT rThumb1
              {
                OFFSET -1.2192 -0.487915 3.41376
                CHANNELS 3 Zrotation Xrotation Yrotation
                JOINT rThumb2
                {
                  OFFSET -3.37035 -0.52449 3.41376
                  CHANNELS 3 Zrotation Xrotation Yrotation
                  End Site
                  {
                    OFFSET -1.78271 -1.18214 1.43049
                  }
                }
              }
              JOINT rIndex1
              {
                OFFSET -7.75947 0.938293 5.60832
                CHANNELS 3 Zrotation Xrotation Yrotation
                JOINT rIndex2
                {
                  OFFSET -2.54057 -0.884171 1.56538
                  CHANNELS 3 Zrotation Xrotation Yrotation
                  End Site
                  {
                    OFFSET -1.62519 -0.234802 1.16502
                  }
                }
              }
              JOINT rMid1
              {
                OFFSET -8.24714 1.18213 3.41376
                CHANNELS 3 Zrotation Xrotation Yrotation
                JOINT rMid2
                {
                  OFFSET -3.10165 -0.590103 1.0647
                  CHANNELS 3 Zrotation Xrotation Yrotation
                  End Site
                  {
                    OFFSET -2.48547 -0.328903 0.83742
                  }
                }
              }
              JOINT rRing1
              {
                OFFSET -8.82822 0.546677 1.51678
                CHANNELS 3 Zrotation Xrotation Yrotation
                JOINT rRing2
                {
                  OFFSET -2.60934 -0.819778 -0.0198488
                  CHANNELS 3 Zrotation Xrotation Yrotation
                  End Site
                  {
                    OFFSET -2.33842 -0.294052 0.168128
                  }
                }
              }
              JOINT rPinky1
              {
                OFFSET -8.27202 -0.0477905 -0.4584
                CHANNELS 3 Zrotation Xrotation Yrotation
                JOINT rPinky2
                {
                  OFFSET -1.82734 -0.647385 -0.700984
                  CHANNELS 3 Zrotation Xrotation Yrotation
                  End Site
                  {
                    OFFSET -1.69225 -0.51767 -0.607171
                  }
                }
              }
            }
          }
        }
      }
      JOINT lCollar
      {
        OFFSET 2.68224 19.2634 -4.8768
        CHANNELS 3 Zrotation Xrotation Yrotation
        JOINT lShldr
        {
          OFFSET 8.77824 -1.95073 1.46304
          CHANNELS 3 Zrotation Xrotation Yrotation
          JOINT lForeArm
          {
            OFFSET 28.1742 -1.7115 0.48768
            CHANNELS 3 Zrotation Xrotation Yrotation
            JOINT lHand
            {
              OFFSET 22.5879 0.773209 7.07136
              CHANNELS 3 Zrotation Xrotation Yrotation
              JOINT lThumb1
              {
                OFFSET 1.2192 -0.487915 3.41376
                CHANNELS 3 Zrotation Xrotation Yrotation
                JOINT lThumb2
                {
                  OFFSET 3.37035 -0.52449 3.41376
                  CHANNELS 3 Zrotation Xrotation Yrotation
                  End Site
                  {
                    OFFSET 1.78271 -1.18214 1.43049
                  }
                }
              }
              JOINT lIndex1
              {
                OFFSET 7.75947 0.938293 5.60832
                CHANNELS 3 Zrotation Xrotation Yrotation
                JOINT lIndex2
                {
                  OFFSET 2.54057 -0.884171 1.56538
                  CHANNELS 3 Zrotation Xrotation Yrotation
                  End Site
                  {
                    OFFSET 1.62519 -0.234802 1.16502
                  }
                }
              }
              JOINT lMid1
              {
                OFFSET 8.24714 1.18213 3.41376
                CHANNELS 3 Zrotation Xrotation Yrotation
                JOINT lMid2
                {
                  OFFSET 3.10165 -0.590103 1.0647
                  CHANNELS 3 Zrotation Xrotation Yrotation
                  End Site
                  {
                    OFFSET 2.48547 -0.328903 0.83742
                  }
                }
              }
              JOINT lRing1
              {
                OFFSET 8.82822 0.546677 1.51678
                CHANNELS 3 Zrotation Xrotation Yrotation
                JOINT lRing2
                {
                  OFFSET 2.60934 -0.819778 -0.0198488
                  CHANNELS 3 Zrotation Xrotation Yrotation
                  End Site
                  {
                    OFFSET 2.33842 -0.294052 0.168128
                  }
                }
              }
              JOINT lPinky1
              {
                OFFSET 8.27202 -0.0477905 -0.4584
                CHANNELS 3 Zrotation Xrotation Yrotation
                JOINT lPinky2
                {
                  OFFSET 1.82734 -0.647385 -0.700984
                  CHANNELS 3 Zrotation Xrotation Yrotation
                  End Site
                  {
                    OFFSET 1.69225 -0.51767 -0.607171
                  }
                }
              }
            }
          }
        }
      }
    }
  }
  JOINT rButtock
  {
    OFFSET -8.77824 4.35084 1.2192
    CHANNELS 3 Zrotation Xrotation Yrotation
    JOINT rThigh
    {
      OFFSET 0 -1.70687 -2.19456
      CHANNELS 3 Zrotation Xrotation Yrotation
      JOINT rShin
      {
        OFFSET 0 -36.8199 0.73152
        CHANNELS 3 Zrotation Xrotation Yrotation
        JOINT rFoot
        {
          OFFSET 0.73152 -45.1104 -5.12064
          CHANNELS 3 Zrotation Xrotation Yrotation
          End Site
          {
            OFFSET -1.1221 -3.69964 12.103
          }
        }
      }
    }
  }
  JOINT lButtock
  {
    OFFSET 8.77824 4.35084 1.2192
    CHANNELS 3 Zrotation Xrotation Yrotation
    JOINT lThigh
    {
      OFFSET 0 -1.70687 -2.19456
      CHANNELS 3 Zrotation Xrotation Yrotation
      JOINT lShin
      {
        OFFSET 0 -36.8199 0.73152
        CHANNELS 3 Zrotation Xrotation Yrotation
        JOINT lFoot
        {
          OFFSET -0.73152 -45.1104 -5.12064
          CHANNELS 3 Zrotation Xrotation Yrotation
          End Site
          {
            OFFSET 1.1221 -3.69964 12.103
          }
        }
      }
    }
  }
}
MOTION
Frames:	5
Frame Time:	0.00833333
-8.0931 77.6754 -53.1957 -180.813 -10.0486 -155.526 -0.4716 -24.0503 -7.64084 1.08178 -2.5482 -2.99108 -1.68018 0.217537 0.11887 0.214839 10.4373 0.37559 -0.0 0.0 0.0 -0.0 0.0 0.0 4.97404e-14 -1.73239e-13 5.58787e-13 61.4934 40.1087 43.8313 -16.3734 -9.04813 30.4431 -4.13516 -48.4987 -9.14574 -2.24007e-09 5.0578e-09 2.10577e-09 -3.93997e-09 9.16492e-09 3.54391e-09 -2.24006e-09 5.0578e-09 2.10575e-09 7.73091 5.47488 0.417314 -2.24007e-09 5.0578e-09 2.10577e-09 2.90554 0.965183 0.102902 -2.24006e-09 5.0578e-09 2.10577e-09 10.2786 0.731801 0.0259123 -2.24007e-09 5.0578e-09 2.10578e-09 2.22167 -0.733487 -0.20892 4.9764e-14 -1.73242e-13 5.58573e-13 -15.7342 45.817 -91.8503 18.6933 -11.4523 -35.5873 0.0632019 -7.09048 0.999709 -2.95243e-10 -2.76994e-09 -1.48957e-09 -5.02968e-10 -4.81752e-09 -2.58396e-09 -2.95245e-10 -2.76993e-09 -1.48956e-09 -7.73091 5.47488 -0.417314 -2.95238e-10 -2.76993e-09 -1.48957e-09 -2.90554 0.965183 -0.102902 -2.95252e-10 -2.76993e-09 -1.48957e-09 -10.2786 0.731801 -0.0259123 -2.95237e-10 -2.76993e-09 -1.48958e-09 -2.22167 -0.733487 0.20892 -2.03217e-16 0.0 -3.88251e-19 -10.1569 -71.053 -14.6933 -0.746446 53.9071 1.20064 -1.65589 -0.75239 -16.0289 2.03217e-16 0.0 3.88251e-19 -5.78248 -7.21965 -8.9602 0.117612 35.9076 -1.40667 9.30202 -13.3934 25.6852
-7.64506 78.091 -54.9032 -180.76 -10.0323 -156.096 -0.784669 -24.5964 -7.74409 0.998121 -2.38177 -3.04441 -1.85084 0.0835627 0.595531 0.589795 11.3924 -0.56821 -0.0 0.0 0.0 -0.0 0.0 0.0 7.92096e-14 -1.64033e-13 6.7714e-13 56.8748 41.4533 48.2937 -17.3489 -10.0088 32.5719 -4.52923 -50.0942 -9.67333 -2.48124e-09 4.5156e-09 2.45382e-09 -4.37043e-09 8.41725e-09 4.12907e-09 -2.48124e-09 4.5156e-09 2.45381e-09 7.73091 5.47488 0.417314 -2.48124e-09 4.5156e-09 2.45382e-09 2.90554 0.965183 0.102902 -2.48123e-09 4.5156e-09 2.45382e-09 10.2786 0.731801 0.0259123 -2.48124e-09 4.5156e-09 2.45383e-09 2.22167 -0.733487 -0.20892 7.92429e-14 -1.64035e-13 6.76871e-13 -11.6137 42.7928 -95.3236 19.4759 -12.369 -37.42 0.100871 -9.16936 1.29863 -5.06083e-10 -5.04308e-10 -1.03538e-09 -8.66786e-10 -8.96018e-10 -1.79877e-09 -5.06083e-10 -5.04301e-10 -1.03536e-09 -7.73091 5.47488 -0.417314 -5.06078e-10 -5.04304e-10 -1.03537e-09 -2.90554 0.965183 -0.102902 -5.06093e-10 -5.04301e-10 -1.03538e-09 -10.2786 0.731801 -0.0259123 -5.06077e-10 -5.04303e-10 -1.03539e-09 -2.22167 -0.733487 0.20892 -2.03217e-16 0.0 -3.88251e-19 -8.68819 -69.3551 -13.0596 -0.733897 53.608 1.18638 -2.12636 -2.03244 -16.7483 2.03217e-16 0.0 3.88251e-19 -5.4998 -6.81124 -8.80145 0.125406 35.8862 -1.35502 8.60131 -11.7503 25.7855
-7.5294 78.8366 -56.5924 -180.581 -11.312 -157.068 -0.965171 -25.058 -7.78087 0.951664 -2.23225 -3.07777 -2.04561 0.0799907 0.869801 0.92765 12.1222 -1.33987 -0.0 0.0 0.0 -0.0 0.0 0.0 1.04776e-13 -1.5346e-13 7.22185e-13 52.2267 42.1555 52.6069 -18.2693 -10.9791 34.6269 -4.80347 -51.0961 -10.0292 -2.55323e-09 3.22494e-09 2.65066e-09 -4.50293e-09 6.28188e-09 4.4621e-09 -2.55322e-09 3.22494e-09 2.65066e-09 7.73091 5.47488 0.417314 -2.55323e-09 3.22494e-09 2.65066e-09 2.90554 0.965183 0.102902 -2.55322e-09 3.22494e-09 2.65066e-09 10.2786 0.731801 0.0259123 -2.55323e-09 3.22494e-09 2.65067e-09 2.22167 -0.733487 -0.20892 1.048e-13 -1.53462e-13 7.21887e-13 -8.4529 39.7849 -97.9092 20.2112 -13.2797 -39.1951 0.14817 -10.9072 1.55188 -7.01176e-10 1.1627e-09 -5.72182e-10 -1.2053e-09 1.99181e-09 -9.98576e-10 -7.01174e-10 1.16271e-09 -5.72163e-10 -7.73091 5.47488 -0.417314 -7.01171e-10 1.16271e-09 -5.72172e-10 -2.90554 0.965183 -0.102902 -7.01186e-10 1.16271e-09 -5.72181e-10 -10.2786 0.731801 -0.0259123 -7.0117e-10 1.16271e-09 -5.72191e-10 -2.22167 -0.733487 0.20892 -2.03217e-16 0.0 -3.88251e-19 -6.95138 -67.689 -11.1323 -0.715747 53.1585 1.16122 -2.51411 -2.86378 -17.5978 2.03217e-16 0.0 3.88251e-19 -5.19985 -6.61609 -8.723 0.132921 35.9022 -1.3097 8.06149 -10.5162 25.8643
-7.37165 79.4161 -57.8594 -180.969 -11.2884 -157.163 -0.91654 -25.4206 -7.7334 0.964209 -2.07868 -3.08823 -2.2882 0.237804 0.855331 1.17435 12.543 -1.85085 -0.0 0.0 0.0 -0.0 0.0 0.0 1.26697e-13 -1.52833e-13 6.47675e-13 47.6289 42.2357 56.6849 -19.1333 -11.9579 36.6049 -4.88569 -51.3564 -10.1303 -2.36727e-09 6.34722e-10 2.58136e-09 -4.18031e-09 1.76503e-09 4.34887e-09 -2.36726e-09 6.34722e-10 2.58136e-09 7.73091 5.47488 0.417314 -2.36727e-09 6.34718e-10 2.58136e-09 2.90554 0.965183 0.102902 -2.36726e-09 6.34718e-10 2.58136e-09 10.2786 0.731801 0.0259123 -2.36727e-09 6.34716e-10 2.58137e-09 2.22167 -0.733487 -0.20892 1.26674e-13 -1.52835e-13 6.47384e-13 -6.25019 36.8811 -99.78 20.8865 -14.1631 -40.8912 0.191462 -12.1421 1.73383 -9.6797e-10 2.18422e-09 -1.28583e-10 -1.66942e-09 3.76449e-09 -2.34204e-10 -9.67969e-10 2.18422e-09 -1.28564e-10 -7.73091 5.47488 -0.417314 -9.67966e-10 2.18422e-09 -1.28574e-10 -2.90554 0.965183 -0.102902 -9.67981e-10 2.18422e-09 -1.28582e-10 -10.2786 0.731801 -0.0259123 -9.67964e-10 2.18422e-09 -1.28592e-10 -2.22167 -0.733487 0.20892 -2.03217e-16 0.0 -3.88251e-19 -4.76873 -66.0211 -8.76943 -0.691992 52.5248 1.1227 -2.79065 -3.16818 -18.6461 2.03217e-16 0.0 3.88251e-19 -4.82404 -6.65129 -8.8157 0.140425 35.9996 -1.27437 7.77789 -9.8947 25.9
-7.20591 80.014 -59.0905 -180.96 -11.6011 -157.465 -0.748344 -25.625 -7.61734 1.01976 -1.91904 -3.07378 -2.57243 0.463975 0.664422 1.37827 12.7423 -2.24023 -0.0 0.0 0.0 -0.0 0.0 0.0 1.47874e-13 -1.54504e-13 4.90955e-13 43.1661 41.7672 60.4844 -19.9456 -12.9444 38.5389 -4.77768 -50.9726 -9.99138 -2.00204e-09 -2.9567e-09 2.31585e-09 -3.54127e-09 -4.56979e-09 3.90593e-09 -2.00204e-09 -2.9567e-09 2.31584e-09 7.73091 5.47488 0.417314 -2.00204e-09 -2.95671e-09 2.31584e-09 2.90554 0.965183 0.102902 -2.00203e-09 -2.9567e-09 2.31584e-09 10.2786 0.731801 0.0259123 -2.00205e-09 -2.95671e-09 2.31585e-09 2.22167 -0.733487 -0.20892 1.47776e-13 -1.54507e-13 4.90691e-13 -4.78896 34.0281 -101.072 21.5103 -15.0311 -42.519 0.218167 -12.9526 1.85375 -1.30323e-09 2.90493e-09 3.43958e-10 -2.25327e-09 5.01865e-09 5.79052e-10 -1.30323e-09 2.90493e-09 3.43976e-10 -7.73091 5.47488 -0.417314 -1.30323e-09 2.90493e-09 3.43965e-10 -2.90554 0.965183 -0.102902 -1.30324e-09 2.90493e-09 3.43959e-10 -10.2786 0.731801 -0.0259123 -1.30323e-09 2.90493e-09 3.43951e-10 -2.22167 -0.733487 0.20892 -2.03217e-16 0.0 -3.88251e-19 -2.45969 -64.2541 -6.24249 -0.663575 51.7069 1.07399 -2.95183 -3.04569 -19.825 2.03217e-16 0.0 3.88251e-19 -4.43258 -6.82116 -9.00205 0.14764 36.1294 -1.24581 7.68402 -9.70172 25.9293
